# xmcd
#
# Track frame offsets: 
#        150
#        15262
#        35436
#        53324
#        70566
#        90200
#        104004
#        124922
#        138886
#        156598
#        170110
#        178715
#        196244
#        215552
#
# Disc length: 2996 seconds
#
# Revision: 0
# Processed by: cddbd v1.5.1PL2 Copyright (c) Steve Scherf et al.
# Submitted via: ExactAudioCopy v0.95b3
#
DISCID=b70bb20e
DTITLE=R. J. Mischo - He Came To Play
DYEAR=2005
DGENRE=Blues
TTITLE0=The Train
TTITLE1=20% Alcohol
TTITLE2=Mojo Lounge
TTITLE3=The Switch
TTITLE4=Telephone Driver (Hand Up And Drive)
TTITLE5=The Pull
TTITLE6=Bluebird Blues
TTITLE7=Please Help
TTITLE8=Hippie's Playground
TTITLE9=The Waddle
TTITLE10=RJ Come And Get It
TTITLE11=I Came To Play
TTITLE12=Jokerhead
TTITLE13=Uh Huh
EXTD=
EXTT0=
EXTT1=
EXTT2=
EXTT3=
EXTT4=
EXTT5=
EXTT6=
EXTT7=
EXTT8=
EXTT9=
EXTT10=
EXTT11=
EXTT12=
EXTT13=
PLAYORDER=
